<mxfile host="app.diagrams.net" modified="2023-11-26T22:34:24.188Z" agent="Mozilla/5.0 (Windows NT 10.0; Win64; x64) AppleWebKit/537.36 (KHTML, like Gecko) Chrome/119.0.0.0 Safari/537.36" etag="Iqb_vhrfTh0e1mZj6JX-" version="22.1.4" type="device" pages="2">
  <diagram name="Versão 1" id="69jUAUAMYxozdDih75KZ">
    <mxGraphModel dx="794" dy="424" grid="1" gridSize="10" guides="1" tooltips="1" connect="1" arrows="0" fold="1" page="1" pageScale="1" pageWidth="827" pageHeight="1169" math="0" shadow="0">
      <root>
        <mxCell id="0" />
        <mxCell id="1" parent="0" />
        <mxCell id="rVl8f4sS4UJpUmV0ZUyS-40" style="edgeStyle=orthogonalEdgeStyle;rounded=0;orthogonalLoop=1;jettySize=auto;html=1;exitX=0.5;exitY=0.5;exitDx=0;exitDy=0;exitPerimeter=0;entryX=1;entryY=0.5;entryDx=0;entryDy=0;strokeColor=#66B2FF;" parent="1" source="aZ-7F40O5Zak4lBexpJ7-3" target="rVl8f4sS4UJpUmV0ZUyS-1" edge="1">
          <mxGeometry relative="1" as="geometry">
            <Array as="points">
              <mxPoint x="560" y="270" />
              <mxPoint x="560" y="460" />
            </Array>
          </mxGeometry>
        </mxCell>
        <mxCell id="rVl8f4sS4UJpUmV0ZUyS-41" style="edgeStyle=orthogonalEdgeStyle;rounded=0;orthogonalLoop=1;jettySize=auto;html=1;exitX=0.5;exitY=0.5;exitDx=0;exitDy=0;exitPerimeter=0;entryX=1;entryY=0.5;entryDx=0;entryDy=0;strokeColor=#66B2FF;" parent="1" source="aZ-7F40O5Zak4lBexpJ7-3" target="aZ-7F40O5Zak4lBexpJ7-4" edge="1">
          <mxGeometry relative="1" as="geometry" />
        </mxCell>
        <mxCell id="rVl8f4sS4UJpUmV0ZUyS-44" style="edgeStyle=orthogonalEdgeStyle;rounded=0;orthogonalLoop=1;jettySize=auto;html=1;exitX=0.5;exitY=0.5;exitDx=0;exitDy=0;exitPerimeter=0;entryX=1;entryY=0.5;entryDx=0;entryDy=0;strokeColor=#3399FF;" parent="1" source="aZ-7F40O5Zak4lBexpJ7-3" target="aZ-7F40O5Zak4lBexpJ7-5" edge="1">
          <mxGeometry relative="1" as="geometry" />
        </mxCell>
        <mxCell id="GbmYP3v7puICWPMJlutL-2" style="edgeStyle=orthogonalEdgeStyle;rounded=0;orthogonalLoop=1;jettySize=auto;html=1;exitX=0.5;exitY=0.5;exitDx=0;exitDy=0;exitPerimeter=0;entryX=1;entryY=0.5;entryDx=0;entryDy=0;strokeColor=#66B2FF;" parent="1" source="aZ-7F40O5Zak4lBexpJ7-3" target="rVl8f4sS4UJpUmV0ZUyS-16" edge="1">
          <mxGeometry relative="1" as="geometry" />
        </mxCell>
        <mxCell id="GbmYP3v7puICWPMJlutL-7" style="edgeStyle=orthogonalEdgeStyle;rounded=0;orthogonalLoop=1;jettySize=auto;html=1;exitX=0.5;exitY=0.5;exitDx=0;exitDy=0;exitPerimeter=0;entryX=1;entryY=0.25;entryDx=0;entryDy=0;strokeColor=#66B2FF;" parent="1" source="aZ-7F40O5Zak4lBexpJ7-3" target="rVl8f4sS4UJpUmV0ZUyS-32" edge="1">
          <mxGeometry relative="1" as="geometry" />
        </mxCell>
        <mxCell id="GbmYP3v7puICWPMJlutL-8" style="edgeStyle=orthogonalEdgeStyle;rounded=0;orthogonalLoop=1;jettySize=auto;html=1;exitX=0.5;exitY=0.5;exitDx=0;exitDy=0;exitPerimeter=0;entryX=1;entryY=0.25;entryDx=0;entryDy=0;strokeColor=#3399FF;" parent="1" source="aZ-7F40O5Zak4lBexpJ7-3" target="rVl8f4sS4UJpUmV0ZUyS-45" edge="1">
          <mxGeometry relative="1" as="geometry" />
        </mxCell>
        <mxCell id="GbmYP3v7puICWPMJlutL-9" style="edgeStyle=orthogonalEdgeStyle;rounded=0;orthogonalLoop=1;jettySize=auto;html=1;exitX=0.5;exitY=0.5;exitDx=0;exitDy=0;exitPerimeter=0;entryX=1;entryY=0.25;entryDx=0;entryDy=0;strokeColor=#3399FF;" parent="1" source="aZ-7F40O5Zak4lBexpJ7-3" target="rVl8f4sS4UJpUmV0ZUyS-34" edge="1">
          <mxGeometry relative="1" as="geometry" />
        </mxCell>
        <mxCell id="aZ-7F40O5Zak4lBexpJ7-3" value="Administrador" style="shape=umlActor;verticalLabelPosition=bottom;verticalAlign=top;html=1;outlineConnect=0;strokeColor=#66B2FF;" parent="1" vertex="1">
          <mxGeometry x="720" y="240" width="30" height="60" as="geometry" />
        </mxCell>
        <mxCell id="aZ-7F40O5Zak4lBexpJ7-4" value="vê feed de manchetes e acessa artigos" style="rounded=1;whiteSpace=wrap;html=1;" parent="1" vertex="1">
          <mxGeometry x="280" y="280" width="120" height="50" as="geometry" />
        </mxCell>
        <mxCell id="aZ-7F40O5Zak4lBexpJ7-5" value="Busca artigos" style="rounded=1;whiteSpace=wrap;html=1;" parent="1" vertex="1">
          <mxGeometry x="280" y="340" width="120" height="40" as="geometry" />
        </mxCell>
        <mxCell id="aZ-7F40O5Zak4lBexpJ7-6" value="&amp;nbsp;Realiza cadastro" style="rounded=1;whiteSpace=wrap;html=1;" parent="1" vertex="1">
          <mxGeometry x="280" y="390" width="120" height="40" as="geometry" />
        </mxCell>
        <mxCell id="aZ-7F40O5Zak4lBexpJ7-13" style="edgeStyle=orthogonalEdgeStyle;rounded=0;orthogonalLoop=1;jettySize=auto;html=1;entryX=0;entryY=0.5;entryDx=0;entryDy=0;strokeColor=#FFFF66;" parent="1" source="aZ-7F40O5Zak4lBexpJ7-10" target="aZ-7F40O5Zak4lBexpJ7-4" edge="1">
          <mxGeometry relative="1" as="geometry" />
        </mxCell>
        <mxCell id="rEDIBzHfa8EjjrVQKgvx-1" style="edgeStyle=orthogonalEdgeStyle;rounded=0;orthogonalLoop=1;jettySize=auto;html=1;entryX=0;entryY=0.5;entryDx=0;entryDy=0;strokeColor=#FFFF66;" parent="1" source="aZ-7F40O5Zak4lBexpJ7-10" target="aZ-7F40O5Zak4lBexpJ7-6" edge="1">
          <mxGeometry relative="1" as="geometry" />
        </mxCell>
        <mxCell id="rVl8f4sS4UJpUmV0ZUyS-5" style="edgeStyle=orthogonalEdgeStyle;rounded=0;orthogonalLoop=1;jettySize=auto;html=1;exitX=0.5;exitY=0.5;exitDx=0;exitDy=0;exitPerimeter=0;entryX=0;entryY=0.5;entryDx=0;entryDy=0;strokeColor=#FFFF66;" parent="1" source="aZ-7F40O5Zak4lBexpJ7-10" target="aZ-7F40O5Zak4lBexpJ7-5" edge="1">
          <mxGeometry relative="1" as="geometry" />
        </mxCell>
        <mxCell id="aZ-7F40O5Zak4lBexpJ7-10" value="Visitante" style="shape=umlActor;verticalLabelPosition=bottom;verticalAlign=top;html=1;outlineConnect=0;strokeColor=#FFFF00;" parent="1" vertex="1">
          <mxGeometry x="30" y="430" width="30" height="60" as="geometry" />
        </mxCell>
        <mxCell id="rVl8f4sS4UJpUmV0ZUyS-1" value="Realiza login" style="rounded=1;whiteSpace=wrap;html=1;" parent="1" vertex="1">
          <mxGeometry x="280" y="445" width="120" height="30" as="geometry" />
        </mxCell>
        <mxCell id="rVl8f4sS4UJpUmV0ZUyS-33" style="edgeStyle=orthogonalEdgeStyle;rounded=0;orthogonalLoop=1;jettySize=auto;html=1;exitX=0.5;exitY=0.5;exitDx=0;exitDy=0;exitPerimeter=0;entryX=1;entryY=0.5;entryDx=0;entryDy=0;strokeColor=#FF3333;" parent="1" target="rVl8f4sS4UJpUmV0ZUyS-32" edge="1">
          <mxGeometry relative="1" as="geometry">
            <mxPoint x="755" y="660" as="sourcePoint" />
            <Array as="points">
              <mxPoint x="755" y="661" />
              <mxPoint x="580" y="661" />
              <mxPoint x="580" y="585" />
            </Array>
          </mxGeometry>
        </mxCell>
        <mxCell id="RELgvwY0mAhYb-bZnH12-7" style="edgeStyle=orthogonalEdgeStyle;rounded=0;orthogonalLoop=1;jettySize=auto;html=1;exitX=0.5;exitY=0.5;exitDx=0;exitDy=0;exitPerimeter=0;entryX=1;entryY=0.5;entryDx=0;entryDy=0;strokeColor=#FF3333;" parent="1" target="rVl8f4sS4UJpUmV0ZUyS-34" edge="1">
          <mxGeometry relative="1" as="geometry">
            <mxPoint x="755" y="660" as="sourcePoint" />
            <Array as="points">
              <mxPoint x="755" y="661" />
              <mxPoint x="580" y="661" />
              <mxPoint x="580" y="695" />
            </Array>
          </mxGeometry>
        </mxCell>
        <mxCell id="GbmYP3v7puICWPMJlutL-4" style="edgeStyle=orthogonalEdgeStyle;rounded=0;orthogonalLoop=1;jettySize=auto;html=1;entryX=1;entryY=0.75;entryDx=0;entryDy=0;strokeColor=#FF3333;" parent="1" target="aZ-7F40O5Zak4lBexpJ7-4" edge="1">
          <mxGeometry relative="1" as="geometry">
            <mxPoint x="750" y="660" as="sourcePoint" />
            <Array as="points">
              <mxPoint x="755" y="660" />
              <mxPoint x="680" y="660" />
              <mxPoint x="680" y="318" />
            </Array>
          </mxGeometry>
        </mxCell>
        <mxCell id="GbmYP3v7puICWPMJlutL-10" style="edgeStyle=orthogonalEdgeStyle;rounded=0;orthogonalLoop=1;jettySize=auto;html=1;entryX=1;entryY=0.25;entryDx=0;entryDy=0;strokeColor=#FF3333;" parent="1" target="aZ-7F40O5Zak4lBexpJ7-5" edge="1">
          <mxGeometry relative="1" as="geometry">
            <mxPoint x="750" y="660" as="sourcePoint" />
            <Array as="points">
              <mxPoint x="748" y="660" />
              <mxPoint x="640" y="660" />
              <mxPoint x="640" y="350" />
            </Array>
          </mxGeometry>
        </mxCell>
        <mxCell id="GbmYP3v7puICWPMJlutL-11" style="edgeStyle=orthogonalEdgeStyle;rounded=0;orthogonalLoop=1;jettySize=auto;html=1;entryX=1;entryY=0.75;entryDx=0;entryDy=0;strokeColor=#FF3333;" parent="1" target="rVl8f4sS4UJpUmV0ZUyS-1" edge="1">
          <mxGeometry relative="1" as="geometry">
            <mxPoint x="748" y="660" as="sourcePoint" />
            <Array as="points">
              <mxPoint x="748" y="660" />
              <mxPoint x="600" y="660" />
              <mxPoint x="600" y="468" />
            </Array>
          </mxGeometry>
        </mxCell>
        <mxCell id="GbmYP3v7puICWPMJlutL-12" style="edgeStyle=orthogonalEdgeStyle;rounded=0;orthogonalLoop=1;jettySize=auto;html=1;entryX=1;entryY=0.75;entryDx=0;entryDy=0;strokeColor=#FF3333;" parent="1" target="rVl8f4sS4UJpUmV0ZUyS-16" edge="1">
          <mxGeometry relative="1" as="geometry">
            <mxPoint x="410" y="530" as="targetPoint" />
            <mxPoint x="740" y="660" as="sourcePoint" />
            <Array as="points">
              <mxPoint x="580" y="660" />
              <mxPoint x="580" y="535" />
            </Array>
          </mxGeometry>
        </mxCell>
        <mxCell id="GbmYP3v7puICWPMJlutL-14" style="edgeStyle=orthogonalEdgeStyle;rounded=0;orthogonalLoop=1;jettySize=auto;html=1;exitX=0.5;exitY=0.5;exitDx=0;exitDy=0;exitPerimeter=0;entryX=1;entryY=0.5;entryDx=0;entryDy=0;strokeColor=#FF3333;" parent="1" target="rVl8f4sS4UJpUmV0ZUyS-45" edge="1">
          <mxGeometry relative="1" as="geometry">
            <mxPoint x="755" y="660" as="sourcePoint" />
            <Array as="points">
              <mxPoint x="755" y="661" />
              <mxPoint x="580" y="661" />
              <mxPoint x="580" y="640" />
            </Array>
          </mxGeometry>
        </mxCell>
        <mxCell id="rVl8f4sS4UJpUmV0ZUyS-16" value="Tem acesso a funções relacionadas à saude" style="rounded=1;whiteSpace=wrap;html=1;" parent="1" vertex="1">
          <mxGeometry x="280" y="490" width="120" height="60" as="geometry" />
        </mxCell>
        <mxCell id="rVl8f4sS4UJpUmV0ZUyS-31" style="edgeStyle=orthogonalEdgeStyle;rounded=0;orthogonalLoop=1;jettySize=auto;html=1;exitX=0.5;exitY=1;exitDx=0;exitDy=0;" parent="1" edge="1">
          <mxGeometry relative="1" as="geometry">
            <mxPoint x="340" y="555" as="sourcePoint" />
            <mxPoint x="340" y="555" as="targetPoint" />
          </mxGeometry>
        </mxCell>
        <mxCell id="rVl8f4sS4UJpUmV0ZUyS-32" value="Interage às postagens (reações)" style="rounded=1;whiteSpace=wrap;html=1;" parent="1" vertex="1">
          <mxGeometry x="280" y="565" width="120" height="40" as="geometry" />
        </mxCell>
        <mxCell id="rVl8f4sS4UJpUmV0ZUyS-34" value="&amp;nbsp;Salvar artigos para ler mais tarde" style="rounded=1;whiteSpace=wrap;html=1;" parent="1" vertex="1">
          <mxGeometry x="280" y="675" width="120" height="40" as="geometry" />
        </mxCell>
        <mxCell id="rVl8f4sS4UJpUmV0ZUyS-45" value="Posta, editar e apagar postagens" style="rounded=1;whiteSpace=wrap;html=1;" parent="1" vertex="1">
          <mxGeometry x="280" y="615" width="120" height="50" as="geometry" />
        </mxCell>
        <mxCell id="GbmYP3v7puICWPMJlutL-18" value="Usuario" style="shape=umlActor;verticalLabelPosition=bottom;verticalAlign=top;html=1;outlineConnect=0;strokeColor=#FF3333;" parent="1" vertex="1">
          <mxGeometry x="740" y="630" width="30" height="60" as="geometry" />
        </mxCell>
      </root>
    </mxGraphModel>
  </diagram>
  <diagram id="C_9ozZ8pMF_v8uG1L9ko" name="versão 2">
    <mxGraphModel dx="1588" dy="848" grid="1" gridSize="10" guides="1" tooltips="1" connect="1" arrows="1" fold="1" page="1" pageScale="1" pageWidth="827" pageHeight="1169" math="0" shadow="0">
      <root>
        <mxCell id="0" />
        <mxCell id="1" parent="0" />
        <mxCell id="fHS-wJ6qx-VjiM7q3plI-9" style="edgeStyle=orthogonalEdgeStyle;rounded=0;orthogonalLoop=1;jettySize=auto;html=1;" edge="1" parent="1" source="Ou1qFfAFzOfloZOAPHZK-1" target="fHS-wJ6qx-VjiM7q3plI-2">
          <mxGeometry relative="1" as="geometry" />
        </mxCell>
        <mxCell id="fHS-wJ6qx-VjiM7q3plI-10" style="edgeStyle=orthogonalEdgeStyle;rounded=0;orthogonalLoop=1;jettySize=auto;html=1;" edge="1" parent="1" source="Ou1qFfAFzOfloZOAPHZK-1" target="fHS-wJ6qx-VjiM7q3plI-1">
          <mxGeometry relative="1" as="geometry" />
        </mxCell>
        <mxCell id="fHS-wJ6qx-VjiM7q3plI-11" style="edgeStyle=orthogonalEdgeStyle;rounded=0;orthogonalLoop=1;jettySize=auto;html=1;" edge="1" parent="1" source="Ou1qFfAFzOfloZOAPHZK-1" target="fHS-wJ6qx-VjiM7q3plI-3">
          <mxGeometry relative="1" as="geometry" />
        </mxCell>
        <mxCell id="Ou1qFfAFzOfloZOAPHZK-1" value="visitante" style="shape=umlActor;verticalLabelPosition=bottom;verticalAlign=top;html=1;outlineConnect=0;" vertex="1" parent="1">
          <mxGeometry x="360" y="470" width="30" height="60" as="geometry" />
        </mxCell>
        <mxCell id="fHS-wJ6qx-VjiM7q3plI-1" value="ver feed de noticias&amp;nbsp;" style="rounded=1;whiteSpace=wrap;html=1;" vertex="1" parent="1">
          <mxGeometry x="315" y="350" width="120" height="60" as="geometry" />
        </mxCell>
        <mxCell id="fHS-wJ6qx-VjiM7q3plI-2" value="usar calculadoras" style="rounded=1;whiteSpace=wrap;html=1;" vertex="1" parent="1">
          <mxGeometry x="120" y="350" width="120" height="60" as="geometry" />
        </mxCell>
        <mxCell id="fHS-wJ6qx-VjiM7q3plI-3" value="entrar em contato" style="rounded=1;whiteSpace=wrap;html=1;" vertex="1" parent="1">
          <mxGeometry x="510" y="350" width="120" height="60" as="geometry" />
        </mxCell>
        <mxCell id="fHS-wJ6qx-VjiM7q3plI-4" value="filtrar artigos por tags&amp;nbsp;" style="rounded=1;whiteSpace=wrap;html=1;" vertex="1" parent="1">
          <mxGeometry x="170" y="180" width="120" height="60" as="geometry" />
        </mxCell>
        <mxCell id="fHS-wJ6qx-VjiM7q3plI-5" value="acessar artigos&amp;nbsp;" style="rounded=1;whiteSpace=wrap;html=1;" vertex="1" parent="1">
          <mxGeometry x="315" y="180" width="120" height="60" as="geometry" />
        </mxCell>
        <mxCell id="fHS-wJ6qx-VjiM7q3plI-6" value="pesquisar artigos" style="rounded=1;whiteSpace=wrap;html=1;" vertex="1" parent="1">
          <mxGeometry x="460" y="180" width="120" height="60" as="geometry" />
        </mxCell>
        <mxCell id="fHS-wJ6qx-VjiM7q3plI-8" value="registrar mensagem" style="rounded=1;whiteSpace=wrap;html=1;" vertex="1" parent="1">
          <mxGeometry x="620" y="250" width="120" height="60" as="geometry" />
        </mxCell>
        <mxCell id="u6i2pcfIXKWiHAYNkOmj-1" value="extend" style="endArrow=open;endSize=12;dashed=1;html=1;rounded=0;" edge="1" parent="1" source="fHS-wJ6qx-VjiM7q3plI-1" target="fHS-wJ6qx-VjiM7q3plI-4">
          <mxGeometry width="160" relative="1" as="geometry">
            <mxPoint x="307.5" y="309.99538461538464" as="sourcePoint" />
            <mxPoint x="442.5" y="275.38" as="targetPoint" />
          </mxGeometry>
        </mxCell>
        <mxCell id="u6i2pcfIXKWiHAYNkOmj-2" value="extend" style="endArrow=open;endSize=12;dashed=1;html=1;rounded=0;" edge="1" parent="1" source="fHS-wJ6qx-VjiM7q3plI-1" target="fHS-wJ6qx-VjiM7q3plI-5">
          <mxGeometry width="160" relative="1" as="geometry">
            <mxPoint x="344" y="309.99538461538464" as="sourcePoint" />
            <mxPoint x="479" y="275.38" as="targetPoint" />
          </mxGeometry>
        </mxCell>
        <mxCell id="u6i2pcfIXKWiHAYNkOmj-3" value="extend" style="endArrow=open;endSize=12;dashed=1;html=1;rounded=0;" edge="1" parent="1" source="fHS-wJ6qx-VjiM7q3plI-1" target="fHS-wJ6qx-VjiM7q3plI-6">
          <mxGeometry width="160" relative="1" as="geometry">
            <mxPoint x="410" y="330" as="sourcePoint" />
            <mxPoint x="570" y="330" as="targetPoint" />
          </mxGeometry>
        </mxCell>
        <mxCell id="u6i2pcfIXKWiHAYNkOmj-4" value="include" style="endArrow=open;endSize=12;dashed=1;html=1;rounded=0;" edge="1" parent="1" source="fHS-wJ6qx-VjiM7q3plI-3" target="fHS-wJ6qx-VjiM7q3plI-8">
          <mxGeometry width="160" relative="1" as="geometry">
            <mxPoint x="480" y="330" as="sourcePoint" />
            <mxPoint x="640" y="330" as="targetPoint" />
          </mxGeometry>
        </mxCell>
        <mxCell id="u6i2pcfIXKWiHAYNkOmj-15" style="edgeStyle=orthogonalEdgeStyle;rounded=0;orthogonalLoop=1;jettySize=auto;html=1;" edge="1" parent="1" source="u6i2pcfIXKWiHAYNkOmj-5" target="u6i2pcfIXKWiHAYNkOmj-9">
          <mxGeometry relative="1" as="geometry" />
        </mxCell>
        <mxCell id="u6i2pcfIXKWiHAYNkOmj-16" style="edgeStyle=orthogonalEdgeStyle;rounded=0;orthogonalLoop=1;jettySize=auto;html=1;entryX=0.5;entryY=0;entryDx=0;entryDy=0;" edge="1" parent="1" source="u6i2pcfIXKWiHAYNkOmj-5" target="u6i2pcfIXKWiHAYNkOmj-10">
          <mxGeometry relative="1" as="geometry" />
        </mxCell>
        <mxCell id="u6i2pcfIXKWiHAYNkOmj-17" style="edgeStyle=orthogonalEdgeStyle;rounded=0;orthogonalLoop=1;jettySize=auto;html=1;" edge="1" parent="1" source="u6i2pcfIXKWiHAYNkOmj-5" target="u6i2pcfIXKWiHAYNkOmj-8">
          <mxGeometry relative="1" as="geometry" />
        </mxCell>
        <mxCell id="u6i2pcfIXKWiHAYNkOmj-5" value="redator" style="shape=umlActor;verticalLabelPosition=bottom;verticalAlign=top;html=1;outlineConnect=0;" vertex="1" parent="1">
          <mxGeometry x="360" y="580" width="30" height="60" as="geometry" />
        </mxCell>
        <mxCell id="u6i2pcfIXKWiHAYNkOmj-12" style="edgeStyle=orthogonalEdgeStyle;rounded=0;orthogonalLoop=1;jettySize=auto;html=1;" edge="1" parent="1" source="u6i2pcfIXKWiHAYNkOmj-6" target="u6i2pcfIXKWiHAYNkOmj-8">
          <mxGeometry relative="1" as="geometry" />
        </mxCell>
        <mxCell id="u6i2pcfIXKWiHAYNkOmj-13" style="edgeStyle=orthogonalEdgeStyle;rounded=0;orthogonalLoop=1;jettySize=auto;html=1;" edge="1" parent="1" source="u6i2pcfIXKWiHAYNkOmj-6" target="u6i2pcfIXKWiHAYNkOmj-9">
          <mxGeometry relative="1" as="geometry" />
        </mxCell>
        <mxCell id="u6i2pcfIXKWiHAYNkOmj-14" style="edgeStyle=orthogonalEdgeStyle;rounded=0;orthogonalLoop=1;jettySize=auto;html=1;" edge="1" parent="1" source="u6i2pcfIXKWiHAYNkOmj-6" target="u6i2pcfIXKWiHAYNkOmj-10">
          <mxGeometry relative="1" as="geometry" />
        </mxCell>
        <mxCell id="u6i2pcfIXKWiHAYNkOmj-20" style="edgeStyle=orthogonalEdgeStyle;rounded=0;orthogonalLoop=1;jettySize=auto;html=1;" edge="1" parent="1" target="u6i2pcfIXKWiHAYNkOmj-18">
          <mxGeometry relative="1" as="geometry">
            <mxPoint x="375" y="910" as="sourcePoint" />
            <Array as="points">
              <mxPoint x="375" y="920" />
              <mxPoint x="255" y="920" />
            </Array>
          </mxGeometry>
        </mxCell>
        <mxCell id="u6i2pcfIXKWiHAYNkOmj-21" style="edgeStyle=orthogonalEdgeStyle;rounded=0;orthogonalLoop=1;jettySize=auto;html=1;" edge="1" parent="1" target="u6i2pcfIXKWiHAYNkOmj-19">
          <mxGeometry relative="1" as="geometry">
            <mxPoint x="375" y="910" as="sourcePoint" />
            <Array as="points">
              <mxPoint x="375" y="920" />
              <mxPoint x="495" y="920" />
            </Array>
          </mxGeometry>
        </mxCell>
        <mxCell id="u6i2pcfIXKWiHAYNkOmj-6" value="administrador&amp;nbsp;" style="shape=umlActor;verticalLabelPosition=bottom;verticalAlign=top;html=1;outlineConnect=0;" vertex="1" parent="1">
          <mxGeometry x="360" y="830" width="30" height="60" as="geometry" />
        </mxCell>
        <mxCell id="u6i2pcfIXKWiHAYNkOmj-8" value="realizar login" style="rounded=1;whiteSpace=wrap;html=1;" vertex="1" parent="1">
          <mxGeometry x="315" y="720" width="120" height="60" as="geometry" />
        </mxCell>
        <mxCell id="u6i2pcfIXKWiHAYNkOmj-9" value="publicar artigo" style="rounded=1;whiteSpace=wrap;html=1;" vertex="1" parent="1">
          <mxGeometry x="160" y="720" width="120" height="60" as="geometry" />
        </mxCell>
        <mxCell id="u6i2pcfIXKWiHAYNkOmj-10" value="atualizar/excluir artigos" style="rounded=1;whiteSpace=wrap;html=1;" vertex="1" parent="1">
          <mxGeometry x="470" y="720" width="120" height="60" as="geometry" />
        </mxCell>
        <mxCell id="u6i2pcfIXKWiHAYNkOmj-18" value="cadastrar redator/administrador" style="rounded=1;whiteSpace=wrap;html=1;" vertex="1" parent="1">
          <mxGeometry x="195" y="970" width="120" height="60" as="geometry" />
        </mxCell>
        <mxCell id="u6i2pcfIXKWiHAYNkOmj-19" value="aprovar artigos" style="rounded=1;whiteSpace=wrap;html=1;" vertex="1" parent="1">
          <mxGeometry x="435" y="970" width="120" height="60" as="geometry" />
        </mxCell>
      </root>
    </mxGraphModel>
  </diagram>
</mxfile>
